<svg width="24" height="24" viewBox="0 0 24 24" fill="none" xmlns="http://www.w3.org/2000/svg">
<path d="M18.8367 13.5446C18.5442 13.5446 18.2637 13.6608 18.0569 13.8676C17.85 14.0745 17.7338 14.355 17.7338 14.6475V15.0666L16.1016 13.4343C15.5252 12.8625 14.7463 12.5417 13.9344 12.5417C13.1226 12.5417 12.3436 12.8625 11.7673 13.4343L10.9953 14.2063L8.26017 11.4712C7.67578 10.9149 6.89985 10.6047 6.09303 10.6047C5.2862 10.6047 4.51027 10.9149 3.92588 11.4712L2.29363 13.1035V6.92737C2.29363 6.63487 2.40983 6.35435 2.61666 6.14752C2.82349 5.9407 3.104 5.8245 3.3965 5.8245H11.1166C11.4091 5.8245 11.6896 5.7083 11.8965 5.50148C12.1033 5.29465 12.2195 5.01413 12.2195 4.72163C12.2195 4.42913 12.1033 4.14861 11.8965 3.94178C11.6896 3.73495 11.4091 3.61876 11.1166 3.61876H3.3965C2.51901 3.61876 1.67745 3.96734 1.05696 4.58783C0.436476 5.20831 0.0878906 6.04987 0.0878906 6.92737V20.1618C0.0878906 21.0393 0.436476 21.8809 1.05696 22.5014C1.67745 23.1219 2.51901 23.4704 3.3965 23.4704H16.631C17.5085 23.4704 18.35 23.1219 18.9705 22.5014C19.591 21.8809 19.9396 21.0393 19.9396 20.1618V14.6475C19.9396 14.355 19.8234 14.0745 19.6166 13.8676C19.4097 13.6608 19.1292 13.5446 18.8367 13.5446ZM3.3965 21.2647C3.104 21.2647 2.82349 21.1485 2.61666 20.9417C2.40983 20.7348 2.29363 20.4543 2.29363 20.1618V16.2246L5.49196 13.0262C5.65398 12.8718 5.86921 12.7857 6.09303 12.7857C6.31684 12.7857 6.53207 12.8718 6.69409 13.0262L10.1902 16.5224L14.9325 21.2647H3.3965ZM17.7338 20.1618C17.7322 20.3729 17.6626 20.5779 17.5353 20.7464L12.5614 15.7503L13.3334 14.9783C13.4124 14.8976 13.5068 14.8335 13.611 14.7898C13.7151 14.746 13.827 14.7234 13.94 14.7234C14.0529 14.7234 14.1648 14.746 14.2689 14.7898C14.3731 14.8335 14.4675 14.8976 14.5465 14.9783L17.7338 18.1877V20.1618ZM22.9284 3.93859L19.6197 0.629976C19.5149 0.52957 19.3912 0.450864 19.2558 0.398374C18.9873 0.288067 18.6861 0.288067 18.4176 0.398374C18.2822 0.450864 18.1586 0.52957 18.0537 0.629976L14.7451 3.93859C14.5374 4.14627 14.4207 4.42793 14.4207 4.72163C14.4207 5.01533 14.5374 5.29699 14.7451 5.50467C14.9527 5.71234 15.2344 5.82901 15.5281 5.82901C15.8218 5.82901 16.1035 5.71234 16.3111 5.50467L17.7338 4.07093V10.236C17.7338 10.5285 17.85 10.809 18.0569 11.0158C18.2637 11.2227 18.5442 11.3389 18.8367 11.3389C19.1292 11.3389 19.4097 11.2227 19.6166 11.0158C19.8234 10.809 19.9396 10.5285 19.9396 10.236V4.07093L21.3623 5.50467C21.4648 5.60804 21.5868 5.69008 21.7212 5.74608C21.8556 5.80207 21.9997 5.83089 22.1453 5.83089C22.2909 5.83089 22.4351 5.80207 22.5695 5.74608C22.7038 5.69008 22.8258 5.60804 22.9284 5.50467C23.0317 5.40214 23.1138 5.28016 23.1698 5.14577C23.2258 5.01137 23.2546 4.86722 23.2546 4.72163C23.2546 4.57604 23.2258 4.43189 23.1698 4.29749C23.1138 4.1631 23.0317 4.04112 22.9284 3.93859Z" fill="white"/>
</svg>
