<svg width="150" height="94" viewBox="0 0 150 94" fill="none" xmlns="http://www.w3.org/2000/svg">
<path d="M37.0774 52.6434C37.0774 53.8533 37.1766 54.8252 37.3749 55.5591C37.5733 56.2731 37.9204 56.9574 38.4162 57.612L38.803 58.1475L38.4162 58.6235H31.9006L31.5436 57.612L32.2279 57.4335C32.9816 57.2351 33.4874 56.9475 33.7452 56.5707C34.0031 56.1938 34.132 55.5591 34.132 54.6666V39.9692C34.132 39.7113 34.0824 39.5328 33.9832 39.4336C33.8841 39.3146 33.7155 39.2551 33.4775 39.2551H31.7518L31.3948 38.1543C32.2477 37.8171 33.3684 37.5196 34.7568 37.2618C36.165 36.9841 37.5138 36.8452 38.803 36.8452C41.7385 36.8452 43.9203 37.5097 45.3484 38.8386C46.7765 40.1477 47.4905 41.8435 47.4905 43.9262C47.4905 45.2154 47.2327 46.3856 46.717 47.4369C46.2013 48.4683 45.4079 49.3013 44.3368 49.936C43.2658 50.5509 41.9369 50.8583 40.3501 50.8583C39.6162 50.8583 38.9914 50.7691 38.4757 50.5906C37.9799 50.412 37.732 50.1542 37.732 49.817C37.732 49.6187 37.7716 49.4501 37.851 49.3112C37.9303 49.1724 38.0493 49.103 38.208 49.103C38.2873 49.103 38.446 49.1426 38.684 49.222C38.9419 49.2815 39.2691 49.3112 39.6658 49.3112C41.1534 49.3112 42.3137 48.8352 43.1468 47.8831C43.9798 46.9311 44.3963 45.6418 44.3963 44.0154C44.3963 42.4088 43.9501 41.0898 43.0575 40.0584C42.1848 39.027 40.9451 38.5113 39.3385 38.5113C37.8311 38.5113 37.0774 38.9675 37.0774 39.8799V52.6434ZM53.2833 47.8831C53.6205 46.5542 54.1362 45.4832 54.8304 44.67C55.5444 43.8567 56.318 43.4501 57.151 43.4501C57.9841 43.4501 58.6684 43.7278 59.2039 44.2832C59.7593 44.8187 60.0369 45.5526 60.0369 46.4848C60.0369 47.2385 59.7593 47.8732 59.2039 48.3889C58.6485 48.9046 57.9543 49.1625 57.1213 49.1625C56.7444 49.1625 56.556 49.0534 56.556 48.8352C56.556 48.7757 56.6353 48.6269 56.794 48.3889C56.9725 48.1509 57.1114 47.903 57.2105 47.6451C57.3295 47.3873 57.389 47.0997 57.389 46.7823C57.389 46.4253 57.2899 46.1476 57.0915 45.9493C56.913 45.7311 56.6849 45.622 56.4072 45.622C55.9312 45.622 55.4353 45.9096 54.9196 46.4848C54.4238 47.0402 53.9973 47.9526 53.6403 49.222C53.2833 50.4716 53.1048 52.0583 53.1048 53.9823C53.1048 54.8748 53.1742 55.5988 53.313 56.1541C53.4519 56.6897 53.6998 57.2054 54.0568 57.7012L54.4139 58.1773L54.0568 58.6235H48.8503L48.523 57.7012L49.1478 57.5525C49.6437 57.4335 49.9709 57.2252 50.1296 56.9277C50.3081 56.6103 50.3974 56.0748 50.3974 55.3211V46.9608C50.3974 46.7228 50.3478 46.5542 50.2486 46.4551C50.1693 46.3559 50.0205 46.3063 49.8023 46.3063H48.4933L48.2255 45.5328C48.8007 45.0171 49.4552 44.5906 50.1891 44.2534C50.9428 43.9162 51.5974 43.7477 52.1527 43.7477C52.4304 43.7477 52.6585 43.8369 52.837 44.0154C53.0155 44.1939 53.1048 44.422 53.1048 44.6997V47.8831H53.2833ZM60.3203 51.2451C60.3203 49.6583 60.6079 48.2798 61.1831 47.1096C61.7781 45.9394 62.6211 45.0369 63.712 44.4022C64.8227 43.7675 66.112 43.4501 67.5797 43.4501C69.0475 43.4501 70.3268 43.7675 71.4177 44.4022C72.5086 45.0369 73.3516 45.9394 73.9466 47.1096C74.5416 48.2798 74.8391 49.6583 74.8391 51.2451C74.8391 52.812 74.5416 54.1905 73.9466 55.3806C73.3516 56.5508 72.5086 57.4533 71.4177 58.088C70.3268 58.7227 69.0475 59.0401 67.5797 59.0401C66.112 59.0401 64.8227 58.7227 63.712 58.088C62.6211 57.4533 61.7781 56.5508 61.1831 55.3806C60.6079 54.1905 60.3203 52.812 60.3203 51.2451ZM71.7152 51.3344C71.7152 50.4021 71.5863 49.4501 71.3284 48.4782C71.0706 47.5063 70.6342 46.6832 70.0194 46.0088C69.4243 45.3344 68.6409 44.9972 67.669 44.9972C66.8359 44.9972 66.0921 45.265 65.4376 45.8005C64.8029 46.3162 64.307 47.0501 63.95 48.0022C63.593 48.9542 63.4145 50.0451 63.4145 51.2748C63.4145 53.1591 63.7814 54.6566 64.5153 55.7674C65.2492 56.8781 66.2409 57.4335 67.4905 57.4335C68.3037 57.4335 69.0276 57.1855 69.6623 56.6897C70.3169 56.174 70.8227 55.4599 71.1797 54.5475C71.5367 53.6153 71.7152 52.5443 71.7152 51.3344ZM77.1967 43.0708C77.1967 42.7714 77.3622 42.4405 77.6931 42.0781C78.0398 41.6999 78.3549 41.5108 78.6386 41.5108C78.938 41.5108 79.261 41.692 79.6077 42.0544C79.9543 42.4169 80.1277 42.7557 80.1277 43.0708C80.1277 43.3702 79.9543 43.7011 79.6077 44.0635C79.261 44.426 78.938 44.6072 78.6386 44.6072C78.3707 44.6072 78.0634 44.426 77.7167 44.0635C77.3701 43.7011 77.1967 43.3702 77.1967 43.0708ZM77.5749 49.1217C77.5749 48.9326 77.5355 48.7987 77.4567 48.7199C77.3937 48.6411 77.2755 48.6017 77.1022 48.6017H76.0622L75.8495 47.9872C76.3064 47.5775 76.8264 47.2387 77.4095 46.9708C78.0083 46.7029 78.5283 46.569 78.9695 46.569C79.1901 46.569 79.3713 46.6399 79.5131 46.7817C79.6549 46.9235 79.7258 47.1047 79.7258 47.3254V59.8763C79.7258 61.5151 79.3634 62.8072 78.6386 63.7526C77.9295 64.7138 76.8658 65.1944 75.4477 65.1944C74.5967 65.1944 73.8955 64.9738 73.344 64.5326C72.7925 64.1072 72.5167 63.5241 72.5167 62.7835C72.5167 62.1847 72.7374 61.6805 73.1786 61.2708C73.6198 60.8611 74.1713 60.6563 74.8331 60.6563C75.1325 60.6563 75.2822 60.7429 75.2822 60.9163C75.2822 60.9635 75.2192 61.066 75.0931 61.2235C74.967 61.3969 74.8567 61.586 74.7622 61.7908C74.6677 62.0114 74.6204 62.2872 74.6204 62.6181C74.6204 63.1066 74.7464 63.4847 74.9986 63.7526C75.2349 64.0363 75.5422 64.1781 75.9204 64.1781C76.3931 64.1781 76.787 63.9654 77.1022 63.5399C77.4174 63.1302 77.5749 62.5157 77.5749 61.6963V49.1217ZM95.2642 56.3922C94.5304 57.245 93.6577 57.8996 92.6461 58.3558C91.6345 58.812 90.5436 59.0401 89.3734 59.0401C88.0048 59.0401 86.8048 58.7227 85.7734 58.088C84.742 57.4533 83.9387 56.5607 83.3635 55.4103C82.8082 54.2599 82.5305 52.931 82.5305 51.4236C82.5305 49.8368 82.8478 48.4484 83.4825 47.2584C84.1173 46.0485 85.0098 45.1162 86.1602 44.4617C87.3304 43.7873 88.6891 43.4501 90.2362 43.4501C91.3271 43.4501 92.2494 43.6584 93.0031 44.0749C93.7767 44.4716 94.3519 45.0071 94.7287 45.6815C95.1056 46.3361 95.294 47.0501 95.294 47.8236C95.294 48.6567 95.0659 49.46 94.6097 50.2335C94.1733 51.0071 93.5287 51.6418 92.6758 52.1377C91.823 52.6137 90.8015 52.8517 89.6114 52.8517C88.9767 52.8517 88.2726 52.7327 87.499 52.4947C86.7255 52.2567 86.3387 51.9096 86.3387 51.4534C86.3387 51.2947 86.3784 51.1459 86.4577 51.0071C86.5569 50.8682 86.666 50.7988 86.785 50.7988C86.8445 50.7988 87.0428 50.8682 87.38 51.0071C87.7172 51.1261 88.1536 51.1856 88.6891 51.1856C89.8792 51.1856 90.8015 50.8484 91.456 50.174C92.1304 49.4997 92.4676 48.7063 92.4676 47.7939C92.4676 47.0203 92.2196 46.3559 91.7238 45.8005C91.2279 45.2253 90.5337 44.9377 89.6412 44.9377C88.3718 44.9377 87.38 45.503 86.666 46.6336C85.9519 47.7443 85.5949 49.341 85.5949 51.4236C85.5949 53.1889 85.9718 54.5773 86.7255 55.5889C87.4792 56.5806 88.5701 57.0764 89.9982 57.0764C91.7436 57.0764 93.1915 56.5112 94.3419 55.3806C94.4213 55.3013 94.5105 55.2616 94.6097 55.2616C94.7684 55.2616 94.937 55.3608 95.1155 55.5591C95.294 55.7376 95.3833 55.926 95.3833 56.1244C95.3833 56.2236 95.3436 56.3128 95.2642 56.3922ZM108.84 55.5591C108.899 55.4996 108.989 55.4698 109.108 55.4698C109.266 55.4698 109.425 55.5591 109.584 55.7376C109.762 55.9161 109.851 56.1046 109.851 56.3029C109.851 56.4219 109.822 56.5112 109.762 56.5707C109.068 57.364 108.255 57.9789 107.323 58.4153C106.41 58.8318 105.438 59.0401 104.407 59.0401C103.038 59.0401 101.809 58.7128 100.718 58.0583C99.6268 57.3839 98.7739 56.4616 98.159 55.2913C97.5441 54.1013 97.2367 52.7624 97.2367 51.2748C97.2367 49.7079 97.5342 48.3393 98.1292 47.1691C98.7243 45.979 99.5573 45.0666 100.628 44.4319C101.719 43.7774 102.989 43.4501 104.437 43.4501C105.964 43.4501 107.213 43.827 108.185 44.5807C109.177 45.3146 109.673 46.2666 109.673 47.4369C109.673 48.2898 109.395 48.9939 108.84 49.5492C108.304 50.0848 107.61 50.3525 106.757 50.3525C106.38 50.3525 106.192 50.2435 106.192 50.0253C106.192 49.9658 106.261 49.8269 106.4 49.6088C106.539 49.3906 106.658 49.1228 106.757 48.8055C106.856 48.4881 106.906 48.0815 106.906 47.5856C106.906 46.7922 106.648 46.1675 106.132 45.7113C105.637 45.2352 104.962 44.9972 104.109 44.9972C102.979 44.9972 102.066 45.5526 101.372 46.6633C100.678 47.7741 100.331 49.2319 100.331 51.0368C100.331 52.8814 100.737 54.3492 101.551 55.4401C102.384 56.5112 103.504 57.0467 104.913 57.0467C106.341 57.0467 107.65 56.5508 108.84 55.5591ZM119.514 43.8369C119.514 44.2534 119.455 44.6303 119.336 44.9675C119.217 45.3047 119.048 45.5526 118.83 45.7113H115.647V55.2913C115.647 55.9062 115.736 56.3426 115.915 56.6004C116.093 56.8583 116.381 56.9872 116.777 56.9872C117.372 56.9872 118.047 56.6698 118.8 56.0351L119.366 56.8087C118.85 57.4831 118.235 58.0285 117.521 58.445C116.807 58.8417 116.133 59.0401 115.498 59.0401C114.685 59.0401 114.05 58.7921 113.594 58.2963C113.158 57.7806 112.939 57.0764 112.939 56.1839V45.7113H110.321C110.321 45.1757 110.361 44.8286 110.44 44.67C110.52 44.5113 110.718 44.3923 111.035 44.3129C112.086 44.0353 112.83 43.589 113.267 42.9741C113.723 42.3394 114.05 41.5262 114.248 40.5345C114.308 40.2171 114.407 40.0188 114.546 39.9394C114.705 39.8601 115.072 39.8204 115.647 39.8204V43.8369H119.514Z" fill="url(#paint0_radial_310_153)" fill-opacity="0.9"/>
<path d="M51.1181 76.5641L51.5273 76.4574C51.978 76.3269 52.2804 76.1549 52.4346 75.9415C52.5888 75.728 52.6658 75.3485 52.6658 74.8029V71.2272H46.8486V74.9274C46.8486 75.4374 46.9198 75.7932 47.0621 75.9948C47.2044 76.1964 47.495 76.3625 47.9338 76.4929L48.3074 76.5997L48.1117 77.1689H43.7532L43.5397 76.5641L43.9489 76.4574C44.3996 76.3269 44.702 76.1549 44.8562 75.9415C45.0103 75.728 45.0874 75.3485 45.0874 74.8029V66.762C45.0874 66.2164 45.0103 65.8369 44.8562 65.6234C44.702 65.4099 44.3996 65.238 43.9489 65.1075L43.5397 65.0008L43.7532 64.3959H47.6491L47.8804 64.6806L47.6491 65.0008C47.3526 65.3921 47.1451 65.8072 47.0265 66.2461C46.9079 66.6849 46.8486 67.2601 46.8486 67.9717V70.142H52.6658V66.762C52.6658 66.2164 52.5888 65.8369 52.4346 65.6234C52.2804 65.4099 51.978 65.238 51.5273 65.1075L51.1181 65.0008L51.3316 64.3959H55.2276L55.4588 64.6806L55.2276 65.0008C54.9311 65.3921 54.7235 65.8072 54.6049 66.2461C54.4863 66.6849 54.427 67.2601 54.427 67.9717V74.9274C54.427 75.4374 54.4982 75.7932 54.6405 75.9948C54.7828 76.1964 55.0734 76.3625 55.5122 76.4929L55.8858 76.5997L55.6901 77.1689H51.3316L51.1181 76.5641ZM55.8021 72.7571C55.8021 71.8083 55.9741 70.9841 56.318 70.2843C56.6738 69.5846 57.1779 69.045 57.8301 68.6655C58.4943 68.2859 59.2652 68.0962 60.1428 68.0962C61.0204 68.0962 61.7854 68.2859 62.4377 68.6655C63.09 69.045 63.594 69.5846 63.9498 70.2843C64.3056 70.9841 64.4835 71.8083 64.4835 72.7571C64.4835 73.694 64.3056 74.5183 63.9498 75.2299C63.594 75.9296 63.09 76.4692 62.4377 76.8487C61.7854 77.2282 61.0204 77.418 60.1428 77.418C59.2652 77.418 58.4943 77.2282 57.8301 76.8487C57.1779 76.4692 56.6738 75.9296 56.318 75.2299C55.9741 74.5183 55.8021 73.694 55.8021 72.7571ZM62.6156 72.8105C62.6156 72.2531 62.5385 71.6838 62.3843 71.1026C62.2301 70.5215 61.9692 70.0293 61.6016 69.6261C61.2458 69.2229 60.7773 69.0213 60.1962 69.0213C59.6981 69.0213 59.2533 69.1814 58.8619 69.5016C58.4824 69.8099 58.1859 70.2487 57.9725 70.818C57.759 71.3873 57.6522 72.0396 57.6522 72.7749C57.6522 73.9016 57.8717 74.797 58.3105 75.4611C58.7493 76.1253 59.3423 76.4574 60.0894 76.4574C60.5757 76.4574 61.0086 76.3091 61.3881 76.0126C61.7795 75.7043 62.0819 75.2773 62.2954 74.7318C62.5088 74.1743 62.6156 73.5339 62.6156 72.8105ZM66.9407 75.6034C66.9407 76.0067 67.1186 76.2083 67.4744 76.2083C67.7709 76.2083 68.0674 76.0838 68.3639 75.8347L68.7019 76.2972C68.3935 76.6412 68.0615 76.914 67.7057 77.1156C67.3499 77.3172 67.0178 77.418 66.7094 77.418C66.2232 77.418 65.8733 77.2698 65.6598 76.9733C65.4464 76.6768 65.3396 76.1964 65.3396 75.5323V65.1787C65.3396 65.0364 65.31 64.9355 65.2507 64.8762C65.2032 64.8169 65.1143 64.7873 64.9838 64.7873H64.2011L64.041 64.3248C64.3849 64.0164 64.7763 63.7614 65.2151 63.5598C65.6539 63.3582 66.0453 63.2574 66.3892 63.2574C66.5553 63.2574 66.6917 63.3107 66.7984 63.4175C66.9051 63.5242 66.9585 63.6606 66.9585 63.8266L66.9407 75.6034ZM68.9111 65.4633C68.9111 65.238 69.0356 64.9889 69.2846 64.7161C69.5456 64.4315 69.7828 64.2892 69.9962 64.2892C70.2216 64.2892 70.4647 64.4256 70.7256 64.6983C70.9865 64.9711 71.117 65.2261 71.117 65.4633C71.117 65.6886 70.9865 65.9377 70.7256 66.2105C70.4647 66.4832 70.2216 66.6196 69.9962 66.6196C69.7946 66.6196 69.5633 66.4832 69.3024 66.2105C69.0415 65.9377 68.9111 65.6886 68.9111 65.4633ZM70.7968 75.6034C70.7968 76.0067 70.9747 76.2083 71.3305 76.2083C71.627 76.2083 71.9235 76.0838 72.2199 75.8347L72.558 76.2972C72.2496 76.6412 71.9175 76.914 71.5617 77.1156C71.2059 77.3172 70.8739 77.418 70.5655 77.418C70.0793 77.418 69.7294 77.2698 69.5159 76.9733C69.3024 76.6768 69.1957 76.1964 69.1957 75.5323V70.0175C69.1957 69.8752 69.166 69.7743 69.1067 69.715C69.0593 69.6558 68.9704 69.6261 68.8399 69.6261H68.0572L67.897 69.1636C68.241 68.8552 68.6324 68.6002 69.0712 68.3986C69.51 68.197 69.9014 68.0962 70.2453 68.0962C70.4113 68.0962 70.5477 68.1496 70.6545 68.2563C70.7612 68.363 70.8146 68.4994 70.8146 68.6655L70.7968 75.6034ZM75.4136 76.5463C75.8999 76.5463 76.2972 76.4158 76.6055 76.1549C76.9257 75.8822 77.0859 75.5323 77.0859 75.1053C77.0859 74.7258 76.9198 74.4175 76.5877 74.1803C76.2675 73.9431 75.7872 73.6881 75.1468 73.4153C74.5656 73.1781 74.0794 72.9469 73.688 72.7215C73.3085 72.4962 72.9824 72.2056 72.7096 71.8498C72.4368 71.4822 72.3004 71.0315 72.3004 70.4978C72.3004 69.7862 72.6028 69.211 73.2077 68.7722C73.8244 68.3215 74.6012 68.0962 75.5381 68.0962C76.3802 68.0962 77.0799 68.2622 77.6373 68.5943C78.1947 68.9264 78.4735 69.3711 78.4735 69.9285C78.4735 70.3792 78.3311 70.7528 78.0465 71.0493C77.7737 71.3339 77.4179 71.4762 76.9791 71.4762C76.7301 71.4762 76.6055 71.3991 76.6055 71.245C76.6055 71.1975 76.647 71.0789 76.7301 70.8892C76.8249 70.6876 76.8724 70.4741 76.8724 70.2487C76.8724 69.8099 76.7241 69.4838 76.4276 69.2703C76.1311 69.0568 75.7931 68.9501 75.4136 68.9501C74.9274 68.9501 74.5419 69.0746 74.2573 69.3237C73.9845 69.5609 73.8481 69.8692 73.8481 70.2487C73.8481 70.6876 74.0201 71.0433 74.364 71.3161C74.7198 71.577 75.2417 71.8498 75.9295 72.1345C76.4988 72.3716 76.9732 72.597 77.3527 72.8105C77.7322 73.0121 78.0524 73.273 78.3133 73.5932C78.5743 73.9134 78.7047 74.2989 78.7047 74.7495C78.7047 75.556 78.3845 76.2024 77.7441 76.6886C77.1036 77.1749 76.2497 77.418 75.1824 77.418C74.281 77.418 73.5398 77.2164 72.9586 76.8132C72.3775 76.4099 72.0869 75.8703 72.0869 75.1943C72.0869 74.7911 72.2233 74.459 72.4961 74.1981C72.7689 73.9371 73.1247 73.8067 73.5635 73.8067C73.8125 73.8067 73.9371 73.8778 73.9371 74.0202C73.9371 74.0557 73.9015 74.1684 73.8303 74.3582C73.7592 74.5361 73.7236 74.7555 73.7236 75.0164C73.7236 75.5145 73.8956 75.894 74.2395 76.1549C74.5953 76.4158 74.9867 76.5463 75.4136 76.5463ZM83.6938 68.3275C83.6938 68.5765 83.6582 68.8018 83.587 69.0035C83.5159 69.2051 83.4151 69.3533 83.2846 69.4482H81.3811V75.1765C81.3811 75.5442 81.4345 75.8051 81.5412 75.9592C81.6479 76.1134 81.8199 76.1905 82.0571 76.1905C82.4129 76.1905 82.8161 76.0008 83.2668 75.6212L83.6048 76.0838C83.2965 76.487 82.9288 76.8132 82.5019 77.0622C82.0749 77.2994 81.6717 77.418 81.2922 77.418C80.8059 77.418 80.4264 77.2698 80.1536 76.9733C79.8927 76.6649 79.7622 76.2439 79.7622 75.7102V69.4482H78.1967C78.1967 69.128 78.2205 68.9204 78.2679 68.8256C78.3153 68.7307 78.4339 68.6595 78.6237 68.6121C79.2523 68.446 79.697 68.1792 79.9579 67.8115C80.2307 67.432 80.4264 66.9458 80.545 66.3528C80.5806 66.163 80.6399 66.0444 80.7229 65.997C80.8178 65.9496 81.0372 65.9258 81.3811 65.9258V68.3275H83.6938ZM84.0108 65.4633C84.0108 65.238 84.1353 64.9889 84.3844 64.7161C84.6453 64.4315 84.8825 64.2892 85.096 64.2892C85.3213 64.2892 85.5644 64.4256 85.8253 64.6983C86.0863 64.9711 86.2167 65.2261 86.2167 65.4633C86.2167 65.6886 86.0863 65.9377 85.8253 66.2105C85.5644 66.4832 85.3213 66.6196 85.096 66.6196C84.8943 66.6196 84.6631 66.4832 84.4022 66.2105C84.1412 65.9377 84.0108 65.6886 84.0108 65.4633ZM85.8965 75.6034C85.8965 76.0067 86.0744 76.2083 86.4302 76.2083C86.7267 76.2083 87.0232 76.0838 87.3197 75.8347L87.6577 76.2972C87.3493 76.6412 87.0172 76.914 86.6615 77.1156C86.3057 77.3172 85.9736 77.418 85.6652 77.418C85.179 77.418 84.8291 77.2698 84.6156 76.9733C84.4022 76.6768 84.2954 76.1964 84.2954 75.5323V70.0175C84.2954 69.8752 84.2658 69.7743 84.2065 69.715C84.159 69.6558 84.0701 69.6261 83.9396 69.6261H83.1569L82.9968 69.1636C83.3407 68.8552 83.7321 68.6002 84.1709 68.3986C84.6097 68.197 85.0011 68.0962 85.345 68.0962C85.5111 68.0962 85.6474 68.1496 85.7542 68.2563C85.8609 68.363 85.9143 68.4994 85.9143 68.6655L85.8965 75.6034ZM94.9786 79.2681C94.9786 79.8374 95.0082 80.2644 95.0675 80.549C95.1268 80.8455 95.2395 81.1123 95.4055 81.3495L95.5834 81.6342L95.3699 81.901H92.0611V81.314L92.6125 81.0649C92.8972 80.9344 93.0929 80.7803 93.1996 80.6024C93.3063 80.4245 93.3597 80.1458 93.3597 79.7662V75.5323C92.8734 76.2202 92.3753 76.7064 91.8654 76.991C91.3554 77.2757 90.8039 77.418 90.2109 77.418C89.6416 77.418 89.1139 77.2579 88.6276 76.9377C88.1414 76.6056 87.75 76.1134 87.4535 75.4611C87.1689 74.8088 87.0266 74.0202 87.0266 73.0951C87.0266 72.0752 87.2104 71.1916 87.578 70.4444C87.9576 69.6854 88.4912 69.1043 89.1791 68.701C89.8788 68.2978 90.6972 68.0962 91.6341 68.0962C92.1085 68.0962 92.7667 68.1733 93.6088 68.3275C94.3559 68.446 94.8955 68.5172 95.2276 68.5409L95.4233 68.7722L95.2098 69.0924C95.1268 69.2347 95.0675 69.3533 95.0319 69.4482C94.9964 69.5431 94.9786 69.6558 94.9786 69.7862V79.2681ZM88.8945 72.7571C88.8945 73.8838 89.0842 74.714 89.4638 75.2477C89.8551 75.7813 90.3414 76.0482 90.9225 76.0482C91.3969 76.0482 91.8416 75.9177 92.2567 75.6568C92.6718 75.384 93.0395 74.9749 93.3597 74.4293V69.6261C92.8141 69.2584 92.233 69.0746 91.6163 69.0746C90.7505 69.0746 90.0805 69.4008 89.6061 70.0531C89.1317 70.6935 88.8945 71.5948 88.8945 72.7571ZM104.173 75.6034C104.173 75.9711 104.345 76.1549 104.689 76.1549C104.962 76.1549 105.253 76.0482 105.561 75.8347L105.899 76.2972C105.626 76.6293 105.306 76.9021 104.938 77.1156C104.583 77.3172 104.251 77.418 103.942 77.418C103.468 77.418 103.118 77.2816 102.893 77.0088C102.679 76.7361 102.572 76.3032 102.572 75.7102C102.3 76.232 101.89 76.6471 101.345 76.9555C100.811 77.2638 100.218 77.418 99.566 77.418C98.712 77.418 98.042 77.163 97.5557 76.653C97.0813 76.1312 96.8441 75.4018 96.8441 74.4649V70.0175C96.8441 69.7566 96.7255 69.6261 96.4883 69.6261H95.7056L95.5455 69.1636C95.8538 68.8552 96.2274 68.6002 96.6662 68.3986C97.1169 68.197 97.5261 68.0962 97.8937 68.0962C98.0598 68.0962 98.1961 68.1496 98.3029 68.2563C98.4096 68.363 98.463 68.4994 98.463 68.6655V74.0557C98.463 74.7673 98.6053 75.307 98.8899 75.6746C99.1864 76.0423 99.6134 76.2261 100.171 76.2261C100.965 76.2261 101.582 75.8822 102.021 75.1943C102.472 74.5064 102.697 73.5576 102.697 72.3479C102.697 71.4703 102.644 70.7884 102.537 70.3021C102.442 69.804 102.264 69.3296 102.003 68.8789L101.79 68.5943L102.003 68.3275L104.173 68.0962V75.6034ZM112.976 75.8347C112.538 76.3447 112.016 76.7361 111.411 77.0088C110.806 77.2816 110.154 77.418 109.454 77.418C108.636 77.418 107.918 77.2282 107.302 76.8487C106.685 76.4692 106.205 75.9355 105.861 75.2477C105.529 74.5598 105.362 73.7652 105.362 72.8638C105.362 71.915 105.552 71.0849 105.932 70.3733C106.311 69.6498 106.845 69.0924 107.533 68.701C108.233 68.2978 109.045 68.0962 109.97 68.0962C110.622 68.0962 111.174 68.2207 111.624 68.4698C112.087 68.707 112.431 69.0272 112.656 69.4304C112.882 69.8218 112.994 70.2487 112.994 70.7113C112.994 71.2094 112.858 71.6897 112.585 72.1522C112.324 72.6148 111.939 72.9943 111.429 73.2908C110.919 73.5754 110.308 73.7177 109.596 73.7177C109.217 73.7177 108.796 73.6466 108.333 73.5043C107.871 73.3619 107.64 73.1544 107.64 72.8816C107.64 72.7867 107.663 72.6978 107.711 72.6148C107.77 72.5318 107.835 72.4902 107.906 72.4902C107.942 72.4902 108.061 72.5318 108.262 72.6148C108.464 72.6859 108.725 72.7215 109.045 72.7215C109.757 72.7215 110.308 72.5199 110.699 72.1167C111.103 71.7134 111.304 71.239 111.304 70.6935C111.304 70.231 111.156 69.8336 110.86 69.5016C110.563 69.1576 110.148 68.9857 109.614 68.9857C108.855 68.9857 108.262 69.3237 107.835 69.9997C107.408 70.6638 107.195 71.6186 107.195 72.8638C107.195 73.9194 107.42 74.7495 107.871 75.3544C108.322 75.9474 108.974 76.2439 109.828 76.2439C110.871 76.2439 111.737 75.9059 112.425 75.2299C112.472 75.1824 112.526 75.1587 112.585 75.1587C112.68 75.1587 112.781 75.218 112.888 75.3366C112.994 75.4433 113.048 75.556 113.048 75.6746C113.048 75.7339 113.024 75.7873 112.976 75.8347Z" fill="url(#paint1_radial_310_153)" fill-opacity="0.9"/>
<g filter="url(#filter0_d_310_153)">
<ellipse cx="75" cy="72.629" rx="65" ry="6.23737" fill="#3D90C6" fill-opacity="0.01" shape-rendering="crispEdges"/>
</g>
<path d="M57.2471 11.2373C58.4287 5.70418 63.5847 1.10504 69.8485 2.14062C75.6783 3.10443 82.4938 3.07433 88.3215 2.09773C98.5078 0.390693 105.762 13.7557 97.8843 21.4802L85.7732 32.322C81.9762 35.721 76.2275 35.7107 72.4428 32.298L68.1041 28.3858" stroke="#49BBBD" stroke-opacity="0.81" stroke-width="3.27731" stroke-linecap="round" stroke-linejoin="round"/>
<path d="M56.9746 20.1254H63.4004C64.714 20.1254 65.9535 19.5167 66.7566 18.4771V18.4771C68.5915 16.102 72.2453 16.332 73.7678 18.9186L74.216 19.6801C75.7384 22.2667 79.3922 22.4967 81.2271 20.1216V20.1216C82.0302 19.082 83.2697 18.4733 84.5833 18.4733H87.6057" stroke="#49BBBD" stroke-opacity="0.81" stroke-width="3.27731" stroke-linecap="round" stroke-linejoin="round"/>
<defs>
<filter id="filter0_d_310_153" x="0.484565" y="62.3136" width="149.031" height="31.5055" filterUnits="userSpaceOnUse" color-interpolation-filters="sRGB">
<feFlood flood-opacity="0" result="BackgroundImageFix"/>
<feColorMatrix in="SourceAlpha" type="matrix" values="0 0 0 0 0 0 0 0 0 0 0 0 0 0 0 0 0 0 127 0" result="hardAlpha"/>
<feOffset dy="5.43739"/>
<feGaussianBlur stdDeviation="4.75772"/>
<feComposite in2="hardAlpha" operator="out"/>
<feColorMatrix type="matrix" values="0 0 0 0 0.185194 0 0 0 0 0.197453 0 0 0 0 0.491667 0 0 0 0.25 0"/>
<feBlend mode="normal" in2="BackgroundImageFix" result="effect1_dropShadow_310_153"/>
<feBlend mode="normal" in="SourceGraphic" in2="effect1_dropShadow_310_153" result="shape"/>
</filter>
<radialGradient id="paint0_radial_310_153" cx="0" cy="0" r="1" gradientUnits="userSpaceOnUse" gradientTransform="translate(25.3012 63.7331) rotate(-18.0412) scale(94.6537 566.84)">
<stop stop-color="#2F327D"/>
<stop offset="0.990385" stop-color="#00CBB8"/>
</radialGradient>
<radialGradient id="paint1_radial_310_153" cx="0" cy="0" r="1" gradientUnits="userSpaceOnUse" gradientTransform="translate(123.017 61.4922) rotate(170.508) scale(81.3582 378.95)">
<stop stop-color="#2F327D"/>
<stop offset="1" stop-color="#00CBB8"/>
</radialGradient>
</defs>
</svg>
